<svg width="24" height="17" viewBox="0 0 24 17" fill="none" xmlns="http://www.w3.org/2000/svg">
<path d="M22.9023 3.21781C22.6406 2.2324 21.8695 1.45631 20.8905 1.19294C19.1159 0.714355 12 0.714355 12 0.714355C12 0.714355 4.88416 0.714355 3.10953 1.19294C2.13049 1.45636 1.3594 2.2324 1.09769 3.21781C0.622192 5.00394 0.622192 8.73052 0.622192 8.73052C0.622192 8.73052 0.622192 12.4571 1.09769 14.2432C1.3594 15.2286 2.13049 15.9724 3.10953 16.2358C4.88416 16.7144 12 16.7144 12 16.7144C12 16.7144 19.1158 16.7144 20.8905 16.2358C21.8695 15.9724 22.6406 15.2286 22.9023 14.2432C23.3778 12.4571 23.3778 8.73052 23.3778 8.73052C23.3778 8.73052 23.3778 5.00394 22.9023 3.21781ZM9.6727 12.114V5.34706L15.6202 8.73061L9.6727 12.114Z" fill="#111827"/>
</svg>
